# xmcd
#
# Track frame offsets:
#	150
#	16787
#	34032
#	51522
#	71007
#	89177
#	106615
#	123700
#	143212
#	160637
#	179355
#	195515
# Disc length: 2865 seconds
# Revision: 10
# Processed by: cddbd v1.5.1PL2 Copyright (c) Steve Scherf et al.
#
# Submitted via: libkcddb 0.31
#
DISCID=a30b2f0c
DTITLE=Café Quijano - La taberna del Buda
DYEAR=2001
DGENRE=Latin
TTITLE0=Nada de ná
TTITLE1=De piratas
TTITLE2=Desde Brasil
TTITLE3=Lucía, la corista
TTITLE4=Que le debo a la vida
TTITLE5=En aquel hotel jamaicano
TTITLE6=La taberna del Buda
TTITLE7=Otra vez (Qué pena de mí)
TTITLE8=Las llaves de Raquel
TTITLE9=Qué poca cosa
TTITLE10=En mis besos
TTITLE11=Otra vez (Qué pena de mí) con Olga Tañón
EXTD=Colección:"La Música que a ti te gusta"
EXTT0=
EXTT1=
EXTT2=
EXTT3=
EXTT4=
EXTT5=
EXTT6=
EXTT7=
EXTT8=
EXTT9=
EXTT10=
EXTT11=
PLAYORDER=
